<svg id="floor2" class="hidden" viewBox="0 0 2829 1391" xmlns="http://www.w3.org/2000/svg">
<path d="m1525.8 1112.8-0.2518-278.25l-152.39-0.25321-152.39-0.25322-1.3564 1.1257-1.3563 1.1257v126.76h-993v-261.6l-1.2-1.2-1.2-1.2h-222.6v-364h779v132.6l1.2 1.2 1.2 1.2h438.6v80.755l1.3564 1.1257 1.3563 1.1257 151.39-0.25324 151.39-0.25323 0.2518-276.25 0.2518-276.25h1303v1391h-1303zm1295.7-417.25v-688h-1288l-0.2555 687-0.2556 687 0.4745 1.2508 0.4744 1.2507 643.78-0.2507 643.78-0.2508zm-1611.7 259.3 1.2-1.2v-126.59l157.25-0.2531 157.25-0.25311v-266l-156.25-0.25312-156.25-0.25313v-80.594l-1.2-1.2-1.2-1.2h-438.6v-132.6l-1.2-1.2-1.2-1.2h-760.2l-1.2 1.2-1.2 1.2v345.2l1.2 1.2 1.2 1.2h222.6v261.6l1.2 1.2 1.2 1.2h974.2z" fill="var(--secondary-text-color)"/>
<path d="m1526 695.5v-695.5h1303v1391h-1303zm1295.5 0v-688h-1288l-0.2555 687-0.2556 687 0.4745 1.2508 0.4744 1.2507 643.78-0.2507 643.78-0.2508z" fill="var(--text-color)"/>
</svg>
