<svg id="floor0" viewBox="0 0 2829 1391" xmlns="http://www.w3.org/2000/svg"><path d="m1525.8 1112.8-0.2518-278.25h-307l-0.5 64-0.5 64h-992l-0.5-131.5-0.5-131.5-112.25-0.25431-112.25-0.25431v-363.99l389.25 0.25127 389.25 0.25127 0.5 67 0.5 67 220 0.5 220 0.5 0.5 41 0.5 41h311l0.2518-276.25 0.2518-276.25h1297v1391h-1303zm292.75 124.25v-146.5h-285l-0.257 145.5-0.2569 145.5 0.4769 1.2534 0.4769 1.2535 142.28-0.2535 142.28-0.2534zm362 0v-146.5h-110l-0.5 92-0.5 92h-50l-0.5-57-0.5-57h-192l-0.2575 110.5-0.2575 110.5 0.4772 1.2528 0.4772 1.2527 176.78-0.2527 176.78-0.2528zm350 0v-146.5h-342l-0.257 145.5-0.2569 145.5 0.4767 1.2529 0.4766 1.2528 170.78-0.2528 170.78-0.2529zm291 0v-146.5h-283l-0.257 145.5-0.2569 145.5 0.4769 1.2534 0.4769 1.2535 141.28-0.2535 141.28-0.2534zm-759-58v-88.5h-36l-0.2581 87.5-0.2581 87.5 0.4856 1.2732 0.4856 1.2731 17.772-0.2731 17.772-0.2732zm-44-57.5v-31h-192l-0.2652 29.989-0.2653 29.989 0.4858 1.266 0.4858 1.266 95.779-0.2551 95.78-0.255zm-372.5-62.5l0.5-23.5 47-0.5 47-0.5v-31l-16-0.5-16-0.5-0.5-25.5-0.5-25.5h-174l-0.2591 64.5-0.2591 64.5 0.4809 1.2584 0.481 1.2584 55.778-0.2584 55.778-0.2584zm94.5 3.5v-20h-87l-0.2729 18.969-0.2728 18.969 0.4955 1.2914 0.4956 1.2915 43.277-0.2607 43.277-0.2606zm84-19.5v-39.5h-76l-0.2621 38.497-0.2621 38.497 0.4853 1.2648 0.4854 1.2648 37.777-0.262 37.777-0.2621zm117.26-14.462 0.2588-53.961 3.1874-3.2885 3.1873-3.2885h2.2977l1.7758 1.9622 1.7757 1.9622-2.6296 3.1251-2.6296 3.1251 0.2588 52.163 0.2589 52.163h872v-62l-189.99-0.2526-189.99-0.2526-19.756-19.738-19.757-19.738v-55.448l-2-1.0704-2-1.0704v-4.8593l2-1.0704 2-1.0704v-506.45l19.257-19.238 19.257-19.238 190.49-0.25258 190.49-0.25259v-64h-1282v246l14 0.5 14 0.5v6l-174.5 0.5-174.5 0.5v266h307l0.5-13.5 0.5-13.5h305l0.2467 140.5 0.2467 140.5 0.4752 1.2586 0.4753 1.2587 54.278-0.2587 54.278-0.2586zm52.896-101.37-1.655-1.8287v-1.9502l3.3006-3.199 3.3005-3.199 171.95 0.25286 171.95 0.25286v6l-170.67 0.5-170.67 0.5-2.395 2.25-2.3949 2.25h-1.0611zm-90.219-92.478-0.534-1.3916 0.2992-6.9008l0.2991-6.9008h16v16l-7.7651 0.29234-7.7652 0.29233zm198.81-112.94-19.25-19.271v-112l19.274-19.255 19.274-19.255 32.476 0.26415 32.476 0.26415v188l-32.5 0.26211-32.5 0.2621zm77.25-75.253v-87l-27.452-0.26644-27.452-0.26644-17.298 17.298-17.298 17.298v105.87l17.298 17.298 17.298 17.298 27.452-0.26644 27.452-0.26644zm-750.11-31.93-0.5576-1.4531 0.3482-1.8084 0.3483-1.8084h79.973v6l-39.777 0.2615-39.777 0.2615zm386.05-43.877-0.534-1.3916 0.2992-6.9008l0.2991-6.9008h16v16l-7.7651 0.29234-7.7652 0.29233zm88 0-0.534-1.3916 0.2992-6.9008l0.2991-6.9008h16v16l-7.7651 0.29234-7.7652 0.29233zm617.56 308.81l0.5-133 149.5-0.5 149.5-0.5v-100l-149.5-0.5-149.5-0.5-0.5-133-0.5-133-38.956-0.26193-38.956-0.26194-17.294 17.294-17.294 17.294v564.87l17.793 17.793 17.793 17.793 38.457-0.2621 38.457-0.2621zm-87.568-45.818-0.5395-1.4061 0.304-5.888 0.304-5.888h15v14l-7.2645 0.2941-7.2644 0.2941zm0-263.99-0.537-1.3994 0.3014-6.3947 0.3015-6.3947h15v15l-7.2645 0.2941-7.2644 0.2941zm387.07 313.31v-129.5h-292l-0.2572 128.5-0.2572 128.5 0.4771 1.2533 0.4771 1.2534 145.78-0.2534 145.78-0.2533zm-997 90.5v-22h-109l-0.271 20.974-0.2709 20.974 0.4929 1.2845 0.4929 1.2845 54.278-0.25862 54.278-0.25863zm-1410-172v-154h-182l-0.25686 153-0.25687 153 0.47751 1.2553 0.47751 1.2553 90.779-0.2553 90.779-0.25529zm350 0v-154h-342l-0.25686 153-0.25687 153 0.47658 1.2529 0.47658 1.2529 170.78-0.25286 170.78-0.25287zm351 0v-154h-343l-0.25686 153-0.25687 153 0.47658 1.2529 0.47657 1.2529 171.28-0.25286 171.28-0.25286zm95 56v-98h-87l-0.2578 97-0.2579 97 0.4806 1.2606 0.4805 1.2606 43.277-0.26065 43.277-0.26064zm466 17.5v-68.5h-143l-0.259 67.5-0.2589 67.5 0.4801 1.2567 0.4802 1.2567 71.279-0.25667 71.279-0.25667zm148 49.5v-19l-45-0.5-45-0.5-0.5-49-0.5-49h-49l-0.259 67.5-0.2589 67.5 0.4802 1.2568 0.4802 1.2568 69.779-0.2568 69.779-0.25681zm0-72.5v-45.5h-83l-0.2608 44.5-0.2608 44.5 0.4837 1.2611 0.4837 1.2611 41.277-0.26111 41.277-0.26112zm-614-152.5v-52h-87l-0.2601 51-0.2601 51 0.4828 1.2606 0.4828 1.2606 43.277-0.26065 43.277-0.26064zm-986-182.5v-174.5h-217l-0.25666 173.5-0.25666 173.5 0.47699 1.2545 0.47699 1.2545 108.28-0.25446 108.28-0.25447zm986.24 80 0.2409-42.5 1.0317-2 1.0317-2-0.2725-36.5-0.2726-36.5h-433l-0.5 47-0.5 47-273 0.5-273 0.5-0.26417 32.492-0.26417 32.492 0.48317 1.2591 0.48318 1.2591 488.78-0.25101 488.78-0.25102zm1610.8-89v-129.5h-292l-0.2572 128.5-0.2572 128.5 0.4771 1.2534 0.4771 1.2533 145.78-0.25334 145.78-0.25335zm-2413-54.5v-111h-176l-0.25752 110-0.25752 110 0.47824 1.2555 0.47823 1.2555 87.779-0.25547 87.779-0.25547zm363 0v-111h-355l-0.25752 110-0.25752 110 0.4772 1.2528 0.47719 1.2528 177.28-0.25277 177.28-0.25276zm1053-300.5v-145.5h-285l-0.257 144.5-0.2569 144.5 0.4769 1.2534 0.4769 1.2534 142.28-0.25342 142.28-0.25343zm424 0v-145.5h-416l-0.257 144.5-0.2569 144.5 0.4765 1.2524 0.4764 1.2524 207.78-0.25237 207.78-0.25236zm279 0v-145.5h-271l-0.257 144.5-0.2569 144.5 0.4769 1.2536 0.477 1.2536 135.28-0.2536 135.28-0.2536zm294 0v-145.5h-286l-0.257 144.5-0.2569 144.5 0.4769 1.2534 0.4769 1.2534 142.78-0.25342 142.78-0.25341z" fill="var(--text-color)"/></svg>
