<svg id="floor1" class="hidden" viewBox="0 0 2829 1391" xmlns="http://www.w3.org/2000/svg" xmlns:xlink="http://www.w3.org/1999/xlink"><path d="M1525.752 1112.75l-.252-278.25-152.394-.253c-111.8-.186-152.755.047-153.75.872-1.116.926-1.356 12.37-1.356 64.503V963H225V832.2l-1.2-132c-.92-.92-27.267-1.2-112.5-1.2H0V335h779v66.3c0 50.233.29 66.59 1.2 67.5.926.926 51.267 1.2 220.5 1.2H1220v40.378c0 32.77.255 40.6 1.356 41.503.995.826 41.69 1.058 152.75.872l151.394-.253.504-552.5H2829v1391H1526.004zM1818.5 1244.5v-139h-285l-.257 138 .22 139.253c.38.998 29.46 1.202 142.757 1l142.28-.253zm86 42v-97h-78l-.258 96 .223 97.262c.378.992 8.77 1.206 39.258 1l38.777-.262zm272-45.5v-142.5h-264l-.257 141.5.22 142.754c.38.998 27.36 1.202 132.257 1l131.78-.254zm267 0v-142.5h-259l-.257 141.5.22 142.754c.38.998 26.86 1.202 129.757 1l129.28-.254zm85 53v-89.5h-78l-.258 88.5.223 89.762c.378.992 8.772 1.206 39.258 1l38.777-.262zm293-53v-142.5h-285l-.257 141.5.22 142.753c.38.998 29.46 1.202 142.757 1l142.28-.253zm-293-639V7.5h-78l-1 822-623 1v351h78l1-257h544l.247 135 .723 136.262c.374.992 8.765 1.206 39.253 1l38.777-.262zm-710 436v-59.5h-285l-.26 58.5.22 59.753c.382.998 29.463 1.202 142.76 1l142.28-.253zm625-27v-79.5h-531l-.258 78.5.22 79.752c.38 1 54.06 1.2 265.758 1l265.28-.252zm378-50.5v-130h-285l-.257 129 .22 130.253c.38.998 29.46 1.202 142.757 1l142.28-.253zm-1003-60v-70h-285l-.26 69 .22 70.253c.38.998 29.462 1.202 142.76 1l142.28-.253zm-608.7 54.3c.908-.908 1.2-16.6 1.2-64.497v-63.297l314.5-.506v-266l-312.5-.506v-40.297c0-30.01-.306-40.603-1.2-41.497-.926-.926-51.267-1.2-220.5-1.2H772v-66.3c0-50.233-.29-66.59-1.2-67.5-1.75-1.75-760.85-1.75-762.6 0s-1.745 345.855 0 347.6c.92.92 27.267 1.2 112.5 1.2H232v130.8l1.2 132c1.75 1.75 974.85 1.75 976.6 0zM1744.5 790v-32.5h-211l-.265 31.49.22 32.755c.387 1 21.664 1.213 105.765 1.01l105.28-.255zm160-139V479.5h-152l-.257 170.5.22 171.756c.38.996 16.163 1.203 76.257 1l75.78-.256zm94 149.5v-22h-86l-.27 20.974c-.15 11.536-.05 21.553.223 22.26.394 1.027 9.134 1.234 43.27 1.026l42.777-.26zm86 13v-9h-78l-.295 7.912c-.162 4.35-.062 8.52.223 9.262.425 1.108 7.48 1.303 39.295 1.088l38.777-.262zm84-29.5v-38.5h-76l-.262 37.496.223 38.762c.382.996 8.522 1.2 38.262 1.004l37.777-.262zm273-91.5v-130h-265l-.257 129 .22 130.254c.38.998 27.46 1.202 132.757 1l132.28-.254zm380 0v-130h-285l-.257 129 .22 130.253c.38.998 29.46 1.202 142.757 1l142.28-.253zm-737 78.5v-25.5l-85-1-1-58h-86v84l93 1 .264 11.5c.145 6.325.47 12.068.723 12.762.36.992 8.74 1.206 39.236 1l38.777-.262zm-340-58v-36.5h-211l-.263 35.495.22 36.755c.385 1.004 21.837 1.208 105.763 1.005l105.28-.255zm340-9v-33.5h-78l-.264 32.492.223 33.762c.385 1.003 8.65 1.215 39.264 1.008l38.777-.262zm84-54v-87.5h-76l-.258 86.5.223 87.762c.378.992 8.572 1.206 38.258 1l37.777-.262zm-170-29.5v-58h-86l-.26 57 .223 58.26c.38.993 9.573 1.205 43.26 1l42.777-.26zm-254-5.5v-53.5h-211l-.26 52.5.22 53.755c.382.997 22.065 1.202 105.76 1l105.28-.255zm340-2.5v-50l-32-1v-6l32-1v-77h-172v77l111 1v6l-17 1-.26 49 .223 50.262c.38.992 8.775 1.206 39.26 1l38.777-.262zm84-96.5v-38.5h-76l-.262 37.496.223 38.762c.382.996 8.522 1.2 38.262 1.004l37.777-.262zm273-91V295.5h-265l-.257 128.5.22 129.754c.38.998 27.46 1.202 132.757 1l132.28-.254zm380 0V295.5h-285l-.257 128.5.22 129.753c.38.998 29.46 1.202 142.757 1l142.28-.253zm-1077 62.5v-66h-211l-.26 65 .22 66.255c.38.997 22.064 1.202 105.76 1l105.28-.255zm87-41v-25l-50-1v-6l50-1 1-47h6l1 105h65V7.5h-371v406l222 1 .3 2.683c.218 1.9-.3 3.01-1.75 3.785-2.082 1.114-3.38 48.38-1.382 50.377.373.373 18.26.56 39.75.417l39.072-.26zm150-7.5v-30.5h-69l-.265 29.488c-.146 16.22-.045 30.062.224 30.763.386 1.006 7.72 1.22 34.765 1.012l34.276-.263zm132-6.5v-37h-124l-.263 35.995.22 37.258c.384 1.002 13.25 1.21 62.263 1.005l61.778-.258zm55 0v-37h-47l-.263 35.995.226 37.268c.38.99 5.64 1.214 23.763 1.005l23.274-.268zm-187-81v-49h-69l-.26 48 .224 49.263c.38.99 7.877 1.206 34.76 1l34.276-.263zm187-6.5v-42.5h-179l-.26 41.5.22 42.755c.383.998 18.844 1.203 89.76 1l89.28-.255zm-73-194V7.5h-183l-.257 142.5.22 143.755c.38.997 19.262 1.203 91.757 1l91.28-.255zm73.5 140.5l.52-3 271.98-1V7.5h-338l-.257 142.5.224 143.764c.377 1 7.47 1.207 32.747 1l32.267-.264zm652.5-144V7.5h-285l-.257 139 .22 140.253c.38.998 29.46 1.202 142.757 1l142.28-.253z" fill="var(--secondary-text-color)"/><path d="M1526 695.5V0h1303v1391H1526zm292.5 549v-139h-285l-.257 138 .22 139.253c.38.998 29.46 1.202 142.757 1l142.28-.253zm86 42v-97h-78l-.258 96 .223 97.262c.378.992 8.77 1.206 39.258 1l38.777-.262zm272-45.5v-142.5h-264l-.257 141.5.22 142.754c.38.998 27.36 1.202 132.257 1l131.78-.254zm267 0v-142.5h-259l-.257 141.5.22 142.754c.38.998 26.86 1.202 129.757 1l129.28-.254zm85 53v-89.5h-78l-.258 88.5.223 89.762c.378.992 8.772 1.206 39.258 1l38.777-.262zm293-53v-142.5h-285l-.257 141.5.22 142.753c.38.998 29.46 1.202 142.757 1l142.28-.253zm-293-639V7.5h-78l-1 822-623 1v351h78l1-257h544l.247 135 .723 136.262c.374.992 8.765 1.206 39.253 1l38.777-.262zm-710 436v-59.5h-285l-.26 58.5.22 59.753c.382.998 29.463 1.202 142.76 1l142.28-.253zm625-27v-79.5h-531l-.258 78.5.22 79.752c.38 1 54.06 1.2 265.758 1l265.28-.252zm378-50.5v-130h-285l-.257 129 .22 130.253c.38.998 29.46 1.202 142.757 1l142.28-.253zm-1003-60v-70h-285l-.26 69 .22 70.253c.38.998 29.462 1.202 142.76 1l142.28-.253zm-74-110.5v-32.5h-211l-.265 31.49.22 32.755c.387 1 21.664 1.213 105.765 1.01l105.28-.255zm160-139V479.5h-152l-.257 170.5.22 171.756c.38.996 16.163 1.203 76.257 1l75.78-.256zm94 149.5v-22h-86l-.27 20.974c-.15 11.536-.05 21.553.223 22.26.394 1.027 9.134 1.234 43.27 1.026l42.777-.26zm86 13v-9h-78l-.295 7.912c-.162 4.35-.062 8.52.223 9.262.425 1.108 7.48 1.303 39.295 1.088l38.777-.262zm84-29.5v-38.5h-76l-.262 37.496.223 38.762c.382.996 8.522 1.2 38.262 1.004l37.777-.262zm273-91.5v-130h-265l-.257 129 .22 130.254c.38.998 27.46 1.202 132.757 1l132.28-.254zm380 0v-130h-285l-.257 129 .22 130.253c.38.998 29.46 1.202 142.757 1l142.28-.253zm-737 78.5v-25.5l-85-1-1-58h-86v84l93 1 .264 11.5c.145 6.325.47 12.068.723 12.762.36.992 8.74 1.206 39.236 1l38.777-.262zm-340-58v-36.5h-211l-.263 35.495.22 36.755c.385 1.004 21.837 1.208 105.763 1.005l105.28-.255zm340-9v-33.5h-78l-.264 32.492.223 33.762c.385 1.003 8.65 1.215 39.264 1.008l38.777-.262zm84-54v-87.5h-76l-.258 86.5.223 87.762c.378.992 8.572 1.206 38.258 1l37.777-.262zm-170-29.5v-58h-86l-.26 57 .223 58.26c.38.993 9.573 1.205 43.26 1l42.777-.26zm-254-5.5v-53.5h-211l-.26 52.5.22 53.755c.382.997 22.065 1.202 105.76 1l105.28-.255zm340-2.5v-50l-32-1v-6l32-1v-77h-172v77l111 1v6l-17 1-.26 49 .223 50.262c.38.992 8.775 1.206 39.26 1l38.777-.262zm84-96.5v-38.5h-76l-.262 37.496.223 38.762c.382.996 8.522 1.2 38.262 1.004l37.777-.262zm273-91V295.5h-265l-.257 128.5.22 129.754c.38.998 27.46 1.202 132.757 1l132.28-.254zm380 0V295.5h-285l-.257 128.5.22 129.753c.38.998 29.46 1.202 142.757 1l142.28-.253zm-1077 62.5v-66h-211l-.26 65 .22 66.255c.38.997 22.064 1.202 105.76 1l105.28-.255zm87-41v-25l-50-1v-6l50-1 1-47h6l1 105h65V7.5h-371v406l222 1 .3 2.683c.218 1.9-.3 3.01-1.75 3.785-2.082 1.114-3.38 48.38-1.382 50.377.373.373 18.26.56 39.75.417l39.072-.26zm150-7.5v-30.5h-69l-.265 29.488c-.146 16.22-.045 30.062.224 30.763.386 1.006 7.72 1.22 34.765 1.012l34.276-.263zm132-6.5v-37h-124l-.263 35.995.22 37.258c.384 1.002 13.25 1.21 62.263 1.005l61.778-.258zm55 0v-37h-47l-.263 35.995.226 37.268c.38.99 5.64 1.214 23.763 1.005l23.274-.268zm-187-81v-49h-69l-.26 48 .224 49.263c.38.99 7.877 1.206 34.76 1l34.276-.263zm187-6.5v-42.5h-179l-.26 41.5.22 42.755c.383.998 18.844 1.203 89.76 1l89.28-.255zm-73-194V7.5h-183l-.257 142.5.22 143.755c.38.997 19.262 1.203 91.757 1l91.28-.255zm73.5 140.5l.52-3 271.98-1V7.5h-338l-.257 142.5.224 143.764c.377 1 7.47 1.207 32.747 1l32.267-.264zm652.5-144V7.5h-285l-.257 139 .22 140.253c.38.998 29.46 1.202 142.757 1l142.28-.253z" fill="var(--text-color)"/><a xlink:href="#205"><text y="1270" x="2600" class="E">205</text></a><a xlink:href="#207"><text y="1270" x="2240" class="E">207</text></a><a xlink:href="#208"><text y="1270" x="1970" class="E">208</text></a><a xlink:href="#210"><text y="1270" x="1600" class="E">210</text></a></svg>
