<svg id="floor2" class="hidden" viewBox="0 0 2829 1391" xmlns="http://www.w3.org/2000/svg" xmlns:xlink="http://www.w3.org/1999/xlink"><path d="M1525.752 1112.75l-.252-278.25-304.787-.506-2.713 2.25V963H225V701.4l-2.4-2.4H0V335h779v132.6l2.4 2.4H1220v80.755l2.713 2.25 302.787-.506.504-552.5H2829v1391H1526.004zM1818.5 1241v-142.5h-285l-.514 283 .954 2.507 284.56-.507zm85 39.5v-103h-77l-.515 204 .962 2.524 76.554-.524zm272-39.5v-142.5h-264l-.514 283 .954 2.507 263.56-.507zm267 0v-142.5h-259l-.514 283 .954 2.507 258.56-.507zm85 39.5v-103h-78l-.515 204 .962 2.524 77.554-.524zm293-39.5v-142.5h-285l-.514 283 .954 2.507 284.56-.507zM1904 1047l.5-122.5h544l1 245h78V7.5h-78l-1 822h-544l-1-822h-77l-.032 1161.262.48 1.262 76.554-.524zm-85.5-86.5v-130h-285l-.514 258 .954 2.507 284.56-.507zm624 50.5v-79.5h-531l-.517 157 .956 2.504 530.56-.504zm378-50.5v-130h-285l-.514 258 .954 2.507 284.56-.507zm-1610.7-5.7l1.2-1.2V827.006l314.5-.506v-266l-312.5-.506V479.4l-2.4-2.4H772V344.4l-2.4-2.4H9.4L7 344.4v345.2l2.4 2.4H232v261.6l2.4 2.4h974.2zm608.7-262.3v-130h-285l-.514 258 .954 2.507 284.56-.507zm115 98v-32h-22l-.53 61.98.993 2.588 21.537-.568zm55.264.293l.264-31.707-4.148-2.22.62-5.365 53-1v-54h-127v54l50 1v6l-20 1-.53 61.98.98 2.556 46.55-.537zm79.736-.293v-32h-72l-.53 61.98.976 2.545 71.553-.525zm57.264.293l.264-31.707-4.148-2.22.62-5.365h10l1 17h42v-72h-129v54l50 1v6l-20 1-.53 61.98.98 2.555 48.55-.536zm49.736 8.707v-23h-42l-.54 43.953.993 2.588 41.547-.54zm267-107v-130h-260l-.514 258 .954 2.507 259.56-.507zm378 0v-130h-285l-.514 258 .954 2.507 284.56-.507zm-645-67v-63h-264l-.518 124 .96 2.507 263.56-.507zm-357-200.5V295.5h-285l-.514 257 .954 2.507 284.56-.507zm357 0V295.5h-264l-.514 257 .955 2.507 263.56-.507zm267 0V295.5h-260l-.514 257 .954 2.507 259.56-.507zm378 0V295.5h-285l-.514 257 .954 2.507 284.56-.507zm-1002-277.5V7.5h-285l-.514 278 .954 2.507 284.56-.507zm357 0V7.5h-264l-.514 278 .954 2.507 263.56-.507zm267 0V7.5h-260l-.514 278 .954 2.507 259.56-.507zm378 0V7.5h-285l-.514 278 .954 2.507 284.56-.507z" fill="var(--secondary-text-color)"/><path d="M1526 695.5V0h1303v1391H1526zm292.5 545.5v-142.5h-285l-.514 283 .954 2.507 284.56-.507zm85 39.5v-103h-77l-.515 204 .962 2.524 76.554-.524zm272-39.5v-142.5h-264l-.514 283 .954 2.507 263.56-.507zm267 0v-142.5h-259l-.514 283 .954 2.507 258.56-.507zm85 39.5v-103h-78l-.515 204 .962 2.524 77.554-.524zm293-39.5v-142.5h-285l-.514 283 .954 2.507 284.56-.507zM1904 1047l.5-122.5h544l1 245h78V7.5h-78l-1 822h-544l-1-822h-77l-.032 1161.262.48 1.262 76.554-.524zm-85.5-86.5v-130h-285l-.514 258 .954 2.507 284.56-.507zm624 50.5v-79.5h-531l-.517 157 .956 2.504 530.56-.504zm378-50.5v-130h-285l-.514 258 .954 2.507 284.56-.507zm-1002-268v-130h-285l-.514 258 .954 2.507 284.56-.507zm115 98v-32h-22l-.53 61.98.993 2.588 21.537-.568zm55.264.293l.264-31.707-4.148-2.22.62-5.365 53-1v-54h-127v54l50 1v6l-20 1-.53 61.98.98 2.556 46.55-.537zm79.736-.293v-32h-72l-.53 61.98.976 2.545 71.553-.525zm57.264.293l.264-31.707-4.148-2.22.62-5.365h10l1 17h42v-72h-129v54l50 1v6l-20 1-.53 61.98.98 2.555 48.55-.536zm49.736 8.707v-23h-42l-.54 43.953.993 2.588 41.547-.54zm267-107v-130h-260l-.514 258 .954 2.507 259.56-.507zm378 0v-130h-285l-.514 258 .954 2.507 284.56-.507zm-645-67v-63h-264l-.518 124 .96 2.507 263.56-.507zm-357-200.5V295.5h-285l-.514 257 .954 2.507 284.56-.507zm357 0V295.5h-264l-.514 257 .955 2.507 263.56-.507zm267 0V295.5h-260l-.514 257 .954 2.507 259.56-.507zm378 0V295.5h-285l-.514 257 .954 2.507 284.56-.507zm-1002-277.5V7.5h-285l-.514 278 .954 2.507 284.56-.507zm357 0V7.5h-264l-.514 278 .954 2.507 263.56-.507zm267 0V7.5h-260l-.514 278 .954 2.507 259.56-.507zm378 0V7.5h-285l-.514 278 .954 2.507 284.56-.507z" fill="var(--text-color)"/><a xlink:href="#301"><text y="175" x="2600" class="E">301</text></a><a xlink:href="#302"><text y="455" x="2600" class="E">302</text></a><a xlink:href="#303"><text y="725" x="2600" class="E">303</text></a><a xlink:href="#304"><text y="995" x="2600" class="E">304</text></a><a xlink:href="#307"><text y="1270" x="2240" class="E">307</text></a><a xlink:href="#308"><text y="1270" x="1970" class="E">308</text></a><a xlink:href="#310"><text y="1270" x="1600" class="E">310</text></a><a xlink:href="#311"><text y="995" x="1600" class="E">311</text></a><a xlink:href="#312"><text y="725" x="1600" class="E">312</text></a><a xlink:href="#313"><text y="455" x="1600" class="E">313</text></a><a xlink:href="#314"><text y="175" x="1600" class="E">314</text></a><a xlink:href="#324"><text y="455" x="2240" class="E">324</text></a><a xlink:href="#325"><text y="175" x="2240" class="E">325</text></a></svg>
