<svg id="floor0" xmlns="http://www.w3.org/2000/svg" xmlns:xlink="http://www.w3.org/1999/xlink" viewBox="0 0 2829 1391"><path fill="var(--text-color)" d="M1525.8 1112.8l-.252-278.25h-307l-1 128h-992l-1-263-224.5-.51v-364l778.5.503 1 134 440 1 1 82h311l.504-552.5h1297v1391h-1303zm292.75 124.25v-146.5h-285l-.514 291 .954 2.507 284.56-.507zm362 0v-146.5h-110l-1 184h-50l-1-114h-192l-.515 221 .954 2.505 353.56-.505zm350 0v-146.5h-342l-.514 291 .953 2.506 341.56-.506zm291 0v-146.5h-283l-.514 291 .954 2.507 282.56-.507zm-759-58v-88.5h-36l-.516 175 .97 2.546 35.544-.546zm-44-57.5v-31h-192l-.53 59.978.972 2.532 191.56-.5zm-372.5-62.5l.5-23.5 94-1v-31l-32-1-1-51h-174l-.518 129 .962 2.517 111.556-.517zm94.5 3.5v-20h-87l-.546 37.938.99 2.583 86.554-.52zm84-19.5v-39.5h-76l-.524 76.994.97 2.53 75.554-.524zm117.26-14.462l.26-53.96 6.375-6.577h2.298l3.552 3.924-5.26 6.25.518 104.326h872v-62l-379.98-.505-39.513-39.476V925.12l-4-2.14v-4.86l4-2.14V409.53l38.514-38.476 380.98-.505v-64h-1282v246l28 1v6l-349 1v266h307l1-27h305l.493 281 .95 2.517 108.556-.517zm52.896-101.37l-1.655-1.83v-1.95l6.6-6.398 343.9.506v6l-341.34 1-4.8 4.5h-1.06zm-90.22-92.478l-.534-1.392.598-13.802h16v16l-15.53.585zm198.8-112.94l-19.25-19.27v-112l38.548-38.5 64.952.528v188l-65 .524zm77.25-75.253v-87l-54.904-.533-34.596 34.596v105.87l34.596 34.596 54.904-.533zm-750.1-31.93l-.558-1.453.697-3.617h79.973v6l-79.554.523zm386.05-43.877l-.534-1.392.598-13.802h16v16l-15.53.585zm88 0l-.534-1.392.598-13.802h16v16l-15.53.585zm617.56 308.8l.5-133 299-1v-100l-299-1-1-266-77.912-.524-34.588 34.588v564.87l35.586 35.586 76.914-.524zm-87.568-45.818l-.54-1.406.608-11.776h15v14l-14.53.588zm0-264l-.537-1.4.603-12.79h15v15l-14.53.588zm387.07 313.3v-129.5h-292l-.514 257 .954 2.507 291.56-.507zm-997 90.5v-22h-109l-.542 41.948.986 2.57 108.556-.517zm-1410-172v-154h-182l-.514 306 .955 2.51 181.558-.51zm350 0v-154h-342l-.514 306 .953 2.506 341.56-.506zm351 0v-154h-343l-.514 306 .953 2.506 342.56-.506zm95 56v-98h-87l-.516 194 .96 2.52 86.554-.52zm466 17.5v-68.5h-143l-.518 135 .96 2.513 142.558-.513zm148 49.5v-19l-90-1-1-98h-49l-.518 135 .96 2.514 139.558-.514zm0-72.5v-45.5h-83l-.522 89 .967 2.522 82.554-.522zm-614-152.5v-52h-87l-.52 102 .966 2.52 86.554-.52zm-986-182.5v-174.5h-217l-.513 347L8 692.06l216.56-.51zm986.24 80l.24-42.5 2.063-4-.545-73h-433l-1 94-546 1-.528 64.984.966 2.518 977.56-.502zm1610.8-89v-129.5h-292l-.514 257 .954 2.507 291.56-.507zm-2413-54.5v-111h-176l-.515 220 .956 2.51 175.558-.51zm363 0v-111h-355l-.515 220 .954 2.506 354.56-.506zm1053-300.5V7.552h-285l-.514 289 .954 2.507 284.56-.507zm424 0V7.552h-416l-.514 289 .953 2.505 415.56-.505zm279 0V7.552h-271l-.514 289 .954 2.507 270.56-.507zm294 0V7.552h-286l-.514 289 .954 2.507 285.56-.507z"/><a xlink:href="#101"><text y="180" x="1600" class="E">101</text></a><a xlink:href="#MU1"><text y="180" x="1945" class="E">MU1</text></a><a xlink:href="#CH2"><text y="540" x="2590" class="E">CH2</text></a><a xlink:href="#CH1"><text y="180" x="2590" class="E">CH1</text></a><a xlink:href="#PH2"><text y="915" x="2600" class="E">PH2</text></a><a xlink:href="#PH1"><text y="1270" x="2600" class="E">PH1</text></a><a xlink:href="#BIO1"><text y="1270" x="2265" class="E">BIO1</text></a></svg>
